<svg width="120" height="120" viewBox="0 0 120 120" fill="none" xmlns="http://www.w3.org/2000/svg">
<path d="M15.0025 30.3179C14.9965 28.2675 16.2526 26.4425 18.1675 25.7095C23.3495 23.7259 33.6321 19.8493 39.2685 18.1297C46.0538 16.0596 54.2749 12.5761 58.0498 10.9235C59.3755 10.3431 60.8798 10.3431 62.2056 10.9235C65.9805 12.5761 74.2015 16.0596 80.9869 18.1297C86.6232 19.8493 96.9059 23.7259 102.088 25.7095C104.003 26.4425 105.259 28.2675 105.253 30.3179C105.235 36.2797 105.109 48.8405 104.4 57.5948C103.422 69.6693 102.789 79.4109 93.3324 89.4531C86.215 97.0109 69.3066 106.23 62.7704 109.644C61.1046 110.515 59.1508 110.515 57.485 109.644C50.9487 106.23 34.0403 97.0109 26.9229 89.4531C17.4659 79.4109 16.8332 69.6693 15.8551 57.5948C15.1459 48.8405 15.0199 36.2797 15.0025 30.3179Z" fill="#336DCB"/>
<path d="M22.0039 35.6401C21.9958 33.5897 23.2524 31.7604 25.1679 31.0289C29.6628 29.3122 37.8563 26.2354 42.424 24.8419C47.9419 23.1584 54.5882 20.3642 57.8963 18.9229C59.2231 18.3449 60.7344 18.3449 62.0612 18.9229C65.3693 20.3642 72.0155 23.1584 77.5335 24.8419C82.1012 26.2354 90.2946 29.3122 94.7896 31.0289C96.705 31.7604 97.9617 33.5897 97.9535 35.6401C97.9328 40.8449 97.814 50.9427 97.2378 58.055C96.4146 68.2168 95.8822 76.4151 87.9233 84.8665C82.0821 91.0691 68.405 98.6016 62.6283 101.636C60.9646 102.51 58.9928 102.51 57.3291 101.636C51.5524 98.6016 37.8753 91.0691 32.0342 84.8665C24.0753 76.4151 23.5428 68.2168 22.7196 58.055C22.1435 50.9427 22.0247 40.8449 22.0039 35.6401Z" fill="#5489D5"/>
<mask id="mask0_4089_19558" style="mask-type:alpha" maskUnits="userSpaceOnUse" x="22" y="18" width="76" height="85">
<path d="M22.0039 35.6401C21.9958 33.5897 23.2524 31.7604 25.1679 31.0289C29.6628 29.3122 37.8563 26.2354 42.424 24.8419C47.9419 23.1584 54.5882 20.3642 57.8963 18.9229C59.2231 18.3449 60.7344 18.3449 62.0612 18.9229C65.3693 20.3642 72.0155 23.1584 77.5335 24.8419C82.1012 26.2354 90.2946 29.3122 94.7896 31.0289C96.705 31.7604 97.9617 33.5897 97.9535 35.6401C97.9328 40.8449 97.814 50.9427 97.2378 58.055C96.4146 68.2168 95.8822 76.4151 87.9233 84.8665C82.0821 91.0691 68.405 98.6016 62.6283 101.636C60.9646 102.51 58.9928 102.51 57.3291 101.636C51.5524 98.6016 37.8753 91.0691 32.0342 84.8665C24.0753 76.4151 23.5428 68.2168 22.7196 58.055C22.1435 50.9427 22.0247 40.8449 22.0039 35.6401Z" fill="#5489D5"/>
</mask>
<g mask="url(#mask0_4089_19558)">
<rect x="14" y="7" width="46" height="106" fill="white" fill-opacity="0.1"/>
</g>
<path d="M60.6459 43.6C62.0326 43.6 63.2993 43.8133 64.4459 44.24C65.6193 44.6667 66.6193 45.2667 67.4459 46.04C68.2726 46.7867 68.9126 47.6933 69.3659 48.76C69.8459 49.8267 70.0859 51 70.0859 52.28C70.0593 53.32 69.8593 54.3333 69.4859 55.32C69.1393 56.28 68.6859 57.2 68.1259 58.08C67.5659 58.96 66.9259 59.8133 66.2059 60.64C65.5126 61.4667 64.7926 62.2667 64.0459 63.04L57.8459 69.28C58.3793 69.1467 58.8859 69.0667 59.3659 69.04C59.8726 68.9867 60.3526 68.96 60.8059 68.96H70.4059V74H49.5659V70.8L59.6059 60.92C61.1259 59.4 62.3259 57.9867 63.2059 56.68C64.0859 55.3733 64.5259 53.9467 64.5259 52.4C64.5259 51.0133 64.1393 49.9733 63.3659 49.28C62.6193 48.56 61.5926 48.2 60.2859 48.2C59.1659 48.2 58.2193 48.5333 57.4459 49.2C56.6726 49.84 56.1259 50.6 55.8059 51.48C55.6993 51.7733 55.6193 52.08 55.5659 52.4C55.5393 52.72 55.5126 53.08 55.4859 53.48L50.2459 52.6C50.7259 49.5333 51.8859 47.2667 53.7259 45.8C55.5926 44.3333 57.8993 43.6 60.6459 43.6Z" fill="white"/>
<path d="M91 108C100.389 108 108 100.389 108 91C108 81.6112 100.389 74 91 74C81.6112 74 74 81.6112 74 91C74 100.389 81.6112 108 91 108Z" fill="#E00842"/>
<path d="M85 91H97" stroke="white" stroke-width="3" stroke-linecap="round"/>
<path d="M91 85L91 97" stroke="white" stroke-width="3" stroke-linecap="round"/>
</svg>
